<?xml version="1.0" encoding="utf-8"?>
<!-- Generator: Adobe Illustrator 23.0.2, SVG Export Plug-In . SVG Version: 6.00 Build 0)  -->
<svg version="1.1" id="Livello_1" xmlns="http://www.w3.org/2000/svg" xmlns:xlink="http://www.w3.org/1999/xlink" x="0px" y="0px"
	 viewBox="0 0 49 13" style="enable-background:new 0 0 49 13;" xml:space="preserve">
<style type="text/css">
	.st0{fill:#31394D;}
</style>
<g>
	<path class="st0" d="M41.4,4.9c0.4-0.4,0.9-0.6,1.6-0.6s1.2,0.2,1.6,0.6c0.4,0.4,0.6,0.9,0.6,1.6S44.9,7.6,44.5,8
		c-0.4,0.4-0.9,0.6-1.6,0.6S41.8,8.5,41.4,8c-0.4-0.4-0.6-0.9-0.6-1.6S41,5.3,41.4,4.9 M38.5,8.3c0.2,0.6,0.6,1,1,1.4
		c0.4,0.4,0.9,0.7,1.5,0.9c0.6,0.2,1.2,0.3,1.9,0.3c0.7,0,1.3-0.1,1.9-0.3c0.6-0.2,1.1-0.5,1.5-0.9c0.4-0.4,0.8-0.9,1-1.4
		c0.2-0.6,0.4-1.2,0.4-1.9s-0.1-1.3-0.4-1.9c-0.2-0.6-0.6-1-1-1.4c-0.4-0.4-0.9-0.7-1.5-0.9C44.2,2,43.6,1.9,43,1.9
		c-0.7,0-1.3,0.1-1.9,0.3c-0.6,0.2-1.1,0.5-1.5,0.9c-0.4,0.4-0.8,0.9-1,1.4c-0.2,0.6-0.4,1.2-0.4,1.9S38.3,7.8,38.5,8.3 M22.6,5.5
		c0-0.2,0.1-0.4,0.2-0.6c0.1-0.2,0.2-0.4,0.4-0.5c0.2-0.1,0.4-0.3,0.6-0.4c0.2-0.1,0.5-0.1,0.8-0.1c0.5,0,0.9,0.2,1.2,0.5
		C26,4.7,26.1,5,26.1,5.5H22.6z M26.5,7.9c-0.2,0.3-0.5,0.6-0.8,0.8C25.4,8.9,25,9,24.6,9c-0.5,0-1-0.2-1.3-0.5
		c-0.4-0.3-0.6-0.7-0.7-1.2h6.2V6.5c0-0.7-0.1-1.3-0.3-1.9c-0.2-0.6-0.5-1-0.8-1.4c-0.4-0.4-0.8-0.7-1.3-0.9
		c-0.5-0.2-1.1-0.3-1.7-0.3c-0.7,0-1.3,0.1-1.9,0.3c-0.6,0.2-1.1,0.5-1.5,0.9c-0.4,0.4-0.8,0.9-1,1.4c-0.2,0.6-0.4,1.2-0.4,1.9
		s0.1,1.3,0.4,1.9c0.2,0.6,0.6,1,1,1.4c0.4,0.4,0.9,0.7,1.5,0.9c0.6,0.2,1.2,0.3,1.9,0.3c0.7,0,1.4-0.1,2-0.4
		c0.7-0.3,1.2-0.7,1.6-1.3L26.5,7.9z M10.4,10.8H13V6.5c0-0.3,0-0.6,0.1-0.8c0-0.3,0.1-0.5,0.2-0.7c0.1-0.2,0.3-0.4,0.5-0.5
		c0.2-0.1,0.5-0.2,0.8-0.2c0.3,0,0.6,0.1,0.8,0.2c0.2,0.1,0.3,0.3,0.4,0.6S16,5.5,16,5.8c0,0.3,0,0.5,0,0.8v4.2h2.7V6
		c0-0.6,0-1.1-0.1-1.6c-0.1-0.5-0.2-0.9-0.5-1.3c-0.2-0.4-0.6-0.7-1-0.9c-0.4-0.2-1-0.3-1.6-0.3c-0.3,0-0.6,0-0.9,0.1
		s-0.5,0.2-0.7,0.3c-0.2,0.1-0.4,0.3-0.6,0.4C13.2,3,13,3.2,13,3.3h0V2.1h-2.6V10.8"/>
	<path class="st0" d="M9,3.1C8.6,2.6,8.1,2.3,7.6,2.2C7,2,6.4,1.9,5.8,1.9C5.4,1.9,4.9,2,4.5,2.1C4.1,2.2,3.7,2.4,3.3,2.6
		C3,2.9,2.7,3.2,2.5,3.5C2.3,3.9,2.2,4.3,2.2,4.8c0,0.5,0.1,1,0.3,1.3C2.8,6.5,3,6.7,3.4,6.9s0.7,0.3,1.1,0.4
		c0.4,0.1,0.7,0.2,1.1,0.2c0.3,0.1,0.6,0.2,0.8,0.3C6.6,8,6.7,8.1,6.7,8.3c0,0.2-0.1,0.4-0.4,0.5C6.1,8.9,5.8,9,5.5,9
		C5.1,9,4.7,8.9,4.4,8.7C4.1,8.6,3.9,8.3,3.6,8L2,9.8c0.4,0.4,0.9,0.7,1.6,0.9C4.2,10.9,4.8,11,5.4,11c0.5,0,0.9,0,1.4-0.1
		c0.5-0.1,0.9-0.2,1.3-0.5C8.5,10.2,8.8,9.9,9,9.5c0.2-0.4,0.4-0.8,0.4-1.4c0-0.5-0.1-1-0.3-1.3C8.8,6.5,8.6,6.3,8.2,6.1
		C7.9,5.9,7.5,5.7,7.1,5.7C6.7,5.6,6.4,5.5,6,5.4C5.7,5.3,5.4,5.2,5.2,5.1C5,5,4.9,4.9,4.9,4.7c0-0.3,0.1-0.4,0.3-0.6
		C5.4,4,5.6,4,5.9,4C6.5,4,7,4.2,7.4,4.7L9,3.1z"/>
</g>
<polygon class="st0" points="30,3.2 30,10.8 33,10.8 33,2 "/>
<polygon class="st0" points="34.3,3.2 34.3,10.8 37.3,10.8 37.3,2 "/>
</svg>
