<?xml version="1.0" encoding="utf-8"?>
<!-- Generator: Adobe Illustrator 23.1.1, SVG Export Plug-In . SVG Version: 6.00 Build 0)  -->
<svg version="1.1" id="Livello_1" xmlns="http://www.w3.org/2000/svg" xmlns:xlink="http://www.w3.org/1999/xlink" x="0px" y="0px"
	 viewBox="0 0 200 50" style="enable-background:new 0 0 200 50;" xml:space="preserve">
<style type="text/css">
	.st0{fill:#31394D;}
	.st1{fill:#F5445F;}
	.st2{clip-path:url(#SVGID_2_);fill:#D4BDA3;}
	.st3{clip-path:url(#SVGID_2_);fill:#F4E6D1;}
	.st4{clip-path:url(#SVGID_2_);fill:#31394D;}
	.st5{clip-path:url(#SVGID_4_);fill:#FFFFFF;}
	.st6{clip-path:url(#SVGID_6_);fill:#FFFFFF;}
	.st7{clip-path:url(#SVGID_6_);fill:#E0C5AB;}
	.st8{clip-path:url(#SVGID_6_);fill:#31394D;}
	.st9{clip-path:url(#SVGID_6_);fill:#F4E6D1;}
	.st10{clip-path:url(#SVGID_6_);fill:#CC9E73;}
	.st11{clip-path:url(#SVGID_6_);fill:#0D0D0D;}
	.st12{clip-path:url(#SVGID_6_);fill:#D4BDA3;}
	.st13{fill:none;stroke:#F0F0F0;stroke-width:1.45;}
</style>
<g>
	<g>
		<path class="st0" d="M171,21.6c1.1-1.2,2.6-1.7,4.5-1.7c1.9,0,3.5,0.6,4.5,1.7c1.1,1.2,1.6,2.7,1.6,4.6c0,1.9-0.5,3.4-1.6,4.6
			c-1.1,1.2-2.6,1.7-4.5,1.7c-1.9,0-3.5-0.6-4.5-1.7c-1.1-1.2-1.6-2.7-1.6-4.6C169.4,24.3,170,22.7,171,21.6 M162.8,31.5
			c0.7,1.6,1.7,3,2.9,4.1c1.2,1.1,2.7,2,4.4,2.6c1.7,0.6,3.5,0.9,5.4,0.9c1.9,0,3.7-0.3,5.4-0.9c1.7-0.6,3.2-1.5,4.4-2.6
			c1.2-1.1,2.2-2.5,2.9-4.1c0.7-1.6,1.1-3.4,1.1-5.4c0-2-0.4-3.8-1.1-5.4c-0.7-1.6-1.7-3-2.9-4.1c-1.2-1.1-2.7-2-4.4-2.6
			c-1.7-0.6-3.5-0.9-5.4-0.9c-1.9,0-3.7,0.3-5.4,0.9c-1.7,0.6-3.2,1.5-4.4,2.6c-1.2,1.1-2.2,2.5-2.9,4.1c-0.7,1.6-1.1,3.4-1.1,5.4
			C161.8,28.1,162.1,29.9,162.8,31.5 M116.9,23.3c0-0.6,0.2-1.2,0.4-1.8c0.3-0.6,0.6-1.1,1.1-1.5c0.5-0.4,1-0.8,1.7-1
			c0.6-0.3,1.4-0.4,2.3-0.4c1.4,0,2.5,0.5,3.4,1.4c0.9,0.9,1.3,2,1.3,3.3H116.9z M128.2,30.3c-0.6,0.9-1.4,1.6-2.3,2.2
			c-0.9,0.6-1.9,0.8-3.2,0.8c-1.5,0-2.8-0.4-3.8-1.3c-1-0.9-1.7-2-2-3.5h17.8v-2.4c0-2-0.3-3.8-0.8-5.4c-0.5-1.6-1.3-3-2.3-4.1
			c-1-1.1-2.2-2-3.7-2.6c-1.5-0.6-3.1-0.9-4.8-0.9c-1.9,0-3.7,0.3-5.4,0.9c-1.7,0.6-3.2,1.5-4.4,2.6c-1.2,1.1-2.2,2.5-2.9,4.1
			c-0.7,1.6-1.1,3.4-1.1,5.4c0,2,0.4,3.8,1.1,5.4c0.7,1.6,1.7,3,2.9,4.1c1.2,1.1,2.7,2,4.4,2.6c1.7,0.6,3.5,0.9,5.4,0.9
			c2,0,4-0.4,5.8-1.3c1.9-0.9,3.4-2.1,4.7-3.6L128.2,30.3z M81.8,38.6h7.7V26.2c0-0.8,0.1-1.6,0.2-2.4c0.1-0.8,0.3-1.4,0.6-2
			c0.3-0.6,0.8-1.1,1.4-1.4c0.6-0.4,1.4-0.5,2.4-0.5c1,0,1.7,0.2,2.3,0.6c0.5,0.4,0.9,0.9,1.2,1.6c0.3,0.6,0.4,1.4,0.5,2.1
			c0.1,0.8,0.1,1.5,0.1,2.2v12.2h7.7V24.9c0-1.7-0.1-3.2-0.4-4.7c-0.2-1.4-0.7-2.7-1.4-3.7c-0.7-1.1-1.6-1.9-2.8-2.5
			c-1.2-0.6-2.8-0.9-4.7-0.9c-0.9,0-1.8,0.1-2.6,0.4c-0.8,0.2-1.5,0.5-2.1,0.9c-0.6,0.4-1.1,0.8-1.6,1.3c-0.4,0.5-0.8,1-1,1.4h-0.1
			v-3.4h-7.4V38.6"/>
		<path class="st0" d="M78,16.4c-1.2-1.2-2.6-2.1-4.2-2.6c-1.7-0.5-3.3-0.7-5-0.7c-1.3,0-2.6,0.2-3.8,0.5c-1.3,0.3-2.4,0.8-3.4,1.5
			c-1,0.7-1.8,1.6-2.4,2.6c-0.6,1.1-0.9,2.3-0.9,3.8c0,1.6,0.3,2.8,0.9,3.8c0.6,0.9,1.4,1.7,2.4,2.2c1,0.5,2,0.9,3.1,1.2
			c1.1,0.3,2.1,0.5,3.1,0.7c1,0.2,1.8,0.5,2.4,0.8c0.6,0.3,0.9,0.8,0.9,1.5c0,0.7-0.4,1.2-1.1,1.4c-0.7,0.3-1.5,0.4-2.4,0.4
			c-1.2,0-2.2-0.2-3-0.7c-0.9-0.5-1.7-1.1-2.4-2l-4.7,5.2c1.2,1.3,2.7,2.1,4.5,2.6c1.8,0.5,3.5,0.7,5.3,0.7c1.3,0,2.7-0.1,4-0.4
			c1.4-0.3,2.6-0.7,3.7-1.3c1.1-0.6,2-1.5,2.7-2.5c0.7-1,1-2.4,1-4c0-1.6-0.3-2.8-0.9-3.8c-0.6-0.9-1.4-1.7-2.4-2.2
			c-1-0.5-2-0.9-3.1-1.2c-1.1-0.3-2.1-0.5-3.1-0.7c-1-0.2-1.8-0.5-2.4-0.8C66.3,22,66,21.6,66,21c0-0.8,0.3-1.3,0.9-1.6
			c0.6-0.3,1.2-0.5,1.9-0.5c1.8,0,3.3,0.7,4.5,2.1L78,16.4z"/>
	</g>
	<polygon class="st0" points="138.3,38.6 145.9,38.6 145.9,13.3 138.3,16.6 	"/>
	<rect x="138.3" y="36.5" class="st1" width="7.7" height="2.7"/>
	<polygon class="st0" points="150.6,38.6 158.3,38.6 158.3,13.3 150.6,16.6 	"/>
	<rect x="150.5" y="36.5" class="st1" width="7.7" height="2.7"/>
	<g>
		<path class="st1" d="M27.7,45c11.7,0,21.1-9.2,21.1-20.4c0-11.3-9.5-20.4-21.1-20.4S6.5,13.3,6.5,24.6C6.5,35.8,16,45,27.7,45"/>
	</g>
	<g>
		<defs>
			<path id="SVGID_1_" d="M6.5,24.6C6.5,35.8,16,45,27.7,45c11.7,0,21.1-9.2,21.1-20.4c0-11.3-9.5-20.4-21.1-20.4
				C16,4.1,6.5,13.3,6.5,24.6"/>
		</defs>
		<clipPath id="SVGID_2_">
			<use xlink:href="#SVGID_1_"  style="overflow:visible;"/>
		</clipPath>
		<polygon class="st2" points="19,14.2 20.2,13 19.1,13.2 		"/>
		<path class="st3" d="M19.1,33.8c0.5,0.2,1.1,0.5,1.6,0.3c0.7-0.2,1.2-0.9,1.5-1.6c0.8-1.7,0.8-3,0.7-4.9c-1.3-2.8-4.8-1-4.8-1
			c-0.6-2.9-2.8-4-5.2-3.2c2.2-0.6,2.1-1.4,2.5-3.2c0.4-2.4,1.7-4.8,3.4-6.5c-1.7,0.5-3.7,1.5-5.2,2.9c-3.1,2.8-4.1,4.2-2.8,8.2
			C12,28.7,15.3,31.9,19.1,33.8"/>
		<path class="st4" d="M18.7,13.6c-0.9,0.9-1.6,1.9-2.2,3l-1.8-1.1C16,14.7,17.4,14,18.7,13.6"/>
		<path class="st2" d="M17.4,14.3l0.8,0.1c0.5,0.1,0.9-0.3,1-0.7l0.2-1.2l-2.6-0.4l-0.2,1.2C16.6,13.8,16.9,14.3,17.4,14.3"/>
		<path class="st2" d="M18.9,13.2L18.9,13.2c0.2,0,0.5-0.1,0.5-0.4l0.1-0.7c0-0.2-0.1-0.5-0.4-0.5c-0.2,0-0.5,0.1-0.5,0.4l-0.1,0.7
			C18.5,12.9,18.6,13.1,18.9,13.2"/>
		<path class="st2" d="M18,13.1L18,13.1c0.2,0,0.5-0.1,0.5-0.4l0.1-0.7c0-0.2-0.1-0.5-0.4-0.5c-0.2,0-0.5,0.1-0.5,0.4l-0.1,0.7
			C17.6,12.8,17.8,13,18,13.1"/>
		<path class="st2" d="M17.2,12.9L17.2,12.9c0.2,0,0.5-0.1,0.5-0.4l0.1-0.7c0-0.2-0.1-0.5-0.4-0.5c-0.2,0-0.5,0.1-0.5,0.4l-0.1,0.7
			C16.8,12.7,16.9,12.9,17.2,12.9"/>
		<polygon class="st2" points="19.2,14.2 20.5,12.9 19.4,13.2 		"/>
		<path class="st2" d="M17.7,14.3l0.8,0.1c0.5,0.1,0.9-0.3,1-0.7l0.2-1.2L17.1,12l-0.2,1.2C16.9,13.8,17.2,14.2,17.7,14.3"/>
		<path class="st3" d="M19.1,13.2L19.1,13.2c0.2,0,0.5-0.1,0.5-0.4l0.1-0.7c0-0.2-0.1-0.5-0.4-0.5c-0.2,0-0.5,0.1-0.5,0.4l-0.1,0.7
			C18.7,12.9,18.9,13.1,19.1,13.2"/>
		<path class="st3" d="M18.3,13L18.3,13c0.2,0,0.5-0.1,0.5-0.4l0.1-0.7c0-0.2-0.1-0.5-0.4-0.5c-0.2,0-0.5,0.1-0.5,0.4l-0.1,0.7
			C17.9,12.8,18.1,13,18.3,13"/>
		<path class="st3" d="M17.5,12.9L17.5,12.9c0.2,0,0.5-0.1,0.5-0.4l0.1-0.7c0-0.2-0.1-0.5-0.4-0.5c-0.2,0-0.5,0.1-0.5,0.4l-0.1,0.7
			C17.1,12.6,17.2,12.9,17.5,12.9"/>
		<path class="st3" d="M39,38.1c1.8-1.1,2.6-3.4,1.6-4.4c-1.2-1.2-3.3-0.9-4.4-0.7L32,26.5c2.2-0.1,6-0.2,9.8,1.8
			c4.6,2.4,6.3,8.4-0.7,11.5c-1.6,0.7-3.3,0.9-5.1,0.9l0-1.2C37.1,39.1,38.1,38.6,39,38.1"/>
		<path class="st3" d="M23.7,25.5c0.8-0.3,0.9-1.3,0.3-1.9c-1.3-1.2-2.1-2.9-2.1-4.9c0-3.5,2.6-5.7,5.8-5.7c3.2,0,5.8,2.1,5.8,5.7
			c0,2-0.8,3.8-2.1,4.9c-0.6,0.6-0.4,1.6,0.3,1.9c3.6,1.5,6.2,4.9,6.2,8.8c0,5.3-4.6,9.6-10.2,9.6c-5.6,0-10.2-4.3-10.2-9.6
			C17.6,30.4,20.1,27,23.7,25.5"/>
		<path class="st4" d="M19.9,45.5c0,0-2.4-5.8-2.4-11.1c0-0.5,0-0.9,0.1-1.4c5.2,0.3,5-5.1,4.7-6.8c0.4-0.2,0.9-0.5,1.3-0.6
			c0,0,0,0,0.1,0c0,0.3,0,0.5,0,0.8c0,4.1,1.8,7.5,4,7.5s4-3.3,4-7.5c0-0.3,0-0.5,0-0.8c0,0,0,0,0,0c0.5,0.2,1,0.5,1.5,0.8
			c-0.2,0.8-1.3,7.1,4.5,6.6c0.1,0.5,0.1,1,0.1,1.5c0,2.4-1,8.2-2.5,12.6L19.9,45.5z"/>
	</g>
	<g>
		<defs>
			<path id="SVGID_3_" d="M23.7,25.5c-0.5,0.2-0.9,0.4-1.3,0.6c0.2,1.7,0.5,7.1-4.8,6.8c-0.1,0.5-0.1,0.9-0.1,1.4
				c0,3.3,0.9,6.7,1.6,8.9c2.6,1.1,5.5,1.7,8.5,1.7c3.2,0,6.3-0.7,9-1.9c0.9-3.5,1.4-7,1.4-8.7c0-0.5,0-1-0.1-1.5
				c-5.8,0.5-4.7-5.8-4.5-6.6c-0.5-0.3-1-0.6-1.5-0.8c0,0,0,0,0,0c0,0.3,0,0.5,0,0.8c0,4.1-1.8,7.5-4,7.5c-2.2,0-4-3.3-4-7.5
				C23.8,26,23.8,25.8,23.7,25.5C23.8,25.5,23.8,25.5,23.7,25.5"/>
		</defs>
		<clipPath id="SVGID_4_">
			<use xlink:href="#SVGID_3_"  style="overflow:visible;"/>
		</clipPath>
		<path class="st5" d="M39.1,42.3h-22c0.1,0.5,0.2,0.7,0.3,1.1l21.3,0C38.9,43.1,38.9,42.7,39.1,42.3 M38.8,41.2
			c0.3-0.4,0.2-0.7,0.4-1.1h-22c0.1,0.5,0.2,0.7,0.3,1.1L38.8,41.2z M38.8,37.6h-22c0.1,0.5,0.2,0.7,0.3,1.1l21.3,0
			C38.6,38.4,38.6,38,38.8,37.6 M39.1,35.3H16.4c0.1,0.4,0,0.8,0.1,1.1H39C39.1,36.1,39,35.7,39.1,35.3 M39.2,34.2
			c0-0.4,0-0.8-0.1-1.1h-9.4h-3.8h-9.4c-0.1,0.4-0.1,0.8-0.1,1.1H39.2z"/>
	</g>
	<g>
		<defs>
			<path id="SVGID_5_" d="M6.5,24.6C6.5,35.8,16,45,27.7,45c11.7,0,21.1-9.2,21.1-20.4c0-11.3-9.5-20.4-21.1-20.4
				C16,4.1,6.5,13.3,6.5,24.6"/>
		</defs>
		<clipPath id="SVGID_6_">
			<use xlink:href="#SVGID_5_"  style="overflow:visible;"/>
		</clipPath>
		<path class="st6" d="M31.8,26.3c0-0.3,0-0.5,0-0.8c0,0,0,0,0,0c0.5,0.2,1,0.5,1.5,0.8c0,0.1-0.1,0.4-0.1,0.7h-1.4
			C31.8,26.8,31.8,26.6,31.8,26.3"/>
		<path class="st6" d="M31.7,28.3h1.5c0,0.4,0,0.8,0.1,1.2h-1.8C31.6,29.1,31.6,28.7,31.7,28.3"/>
		<path class="st6" d="M22.4,26.2c0.4-0.2,0.9-0.5,1.3-0.6c0,0,0,0,0.1,0c0,0.3,0,0.5,0,0.8c0,0.3,0,0.5,0,0.7h-1.3
			C22.5,26.7,22.4,26.4,22.4,26.2"/>
		<path class="st6" d="M25.1,31.9h-4c0.3-0.4,0.6-0.8,0.8-1.2h2.6C24.7,31.1,24.9,31.5,25.1,31.9"/>
		<path class="st6" d="M31.1,30.7h2.5c0.2,0.4,0.4,0.8,0.8,1.2h-3.8C30.7,31.5,30.9,31.1,31.1,30.7"/>
		<path class="st6" d="M23.9,28.3c0.1,0.4,0.1,0.8,0.2,1.2h-1.8c0.1-0.4,0.1-0.8,0.2-1.2H23.9z"/>
		<path class="st7" d="M21.9,18.1c0,4,2.6,7.2,5.9,7.2s5.9-3.2,5.9-7.2s-2.6-6.4-5.9-6.4S21.9,14.1,21.9,18.1"/>
		<path class="st8" d="M27.6,22.3c-0.8-2.4,2-2.9,3.4-1.7c1.7,1.4,2.2,3.3,4.8,1.4C34.4,24.8,28.5,25.2,27.6,22.3"/>
		<path class="st8" d="M28,22.3c0.8-2.4-2-2.9-3.4-1.7c-1.7,1.4-2.2,3.3-4.8,1.4C21.2,24.8,27,25.2,28,22.3"/>
		<path class="st9" d="M24.9,42.8h5.1c0.2,0,0.3-0.1,0.3-0.3v-2.6c0-0.2-0.1-0.3-0.3-0.3h-5.1c-0.2,0-0.3,0.1-0.3,0.3v2.6
			C24.5,42.6,24.7,42.8,24.9,42.8"/>
		<path class="st6" d="M27.7,21L27.7,21c0.4,0,0.7-0.3,0.7-0.7l-0.2-2.8c0-0.4-0.1-0.7-0.5-0.7c-0.4,0-0.5,0.3-0.5,0.7L27,20.3
			C27,20.7,27.3,21,27.7,21"/>
		<path class="st10" d="M29.7,18.6c0,0.4,0.3,0.7,0.7,0.7c0.4,0,0.7-0.3,0.7-0.7s-0.3-0.7-0.7-0.7C30.1,17.9,29.7,18.3,29.7,18.6"/>
		<path class="st10" d="M24.3,18.6c0,0.4,0.3,0.7,0.7,0.7s0.7-0.3,0.7-0.7s-0.3-0.7-0.7-0.7S24.3,18.3,24.3,18.6"/>
		<path class="st7" d="M33.1,17.6c0,0,0.8-2.1,1.4-0.4c0.5,1.3-0.3,2.6-1,2.5C32.9,19.6,33.1,17.6,33.1,17.6"/>
		<path class="st11" d="M28.9,14.7c0,0,1.8-0.3,2.3,0.8c0,0-2-0.5-2.3-0.3L28.9,14.7z"/>
		<path class="st6" d="M28.9,16.4c0,0.4,0.5,0.7,1.1,0.7c0.6,0,1-0.4,1-0.8c0-0.4-0.5-0.7-1.1-0.7C29.3,15.7,28.8,16.1,28.9,16.4"/>
		<path class="st11" d="M30.2,16.4c0,0.2-0.1,0.4-0.3,0.4c-0.2,0-0.3-0.2-0.3-0.4c0-0.2,0.1-0.4,0.3-0.4C30,16,30.1,16.2,30.2,16.4"
			/>
		<path class="st11" d="M26.4,14.7c0,0-1.8-0.3-2.3,0.8c0,0,2-0.5,2.3-0.3L26.4,14.7z"/>
		<path class="st6" d="M26.5,16.4c0,0.4-0.5,0.7-1.1,0.7c-0.6,0-1-0.4-1-0.8c0-0.4,0.5-0.7,1.1-0.7C26.1,15.7,26.5,16.1,26.5,16.4"
			/>
		<path class="st11" d="M25.2,16.4c0,0.2,0.1,0.4,0.3,0.4c0.2,0,0.3-0.2,0.3-0.4c0-0.2-0.1-0.4-0.3-0.4C25.3,16,25.2,16.2,25.2,16.4
			"/>
		<path class="st7" d="M22.5,17.6c0,0-0.8-2.1-1.4-0.4c-0.5,1.3,0.3,2.6,1,2.5C22.8,19.6,22.5,17.6,22.5,17.6"/>
		<path class="st8" d="M27.8,41.4c0.1,0,0.2,0.1,0.2,0.2c0,0.1-0.1,0.2-0.2,0.2l-1.5,0c0,0.3,0.2,0.5,0.5,0.5h1.1
			c0.3,0,0.6-0.3,0.6-0.6c0-0.3-0.3-0.6-0.6-0.6c0,0-0.8,0-0.9,0c-0.1,0-0.2-0.1-0.2-0.2c0-0.1,0.1-0.2,0.2-0.2h1.1
			c0.3,0,0.5-0.2,0.5-0.5c0,0-1.2,0-1.6,0c-0.3,0-0.6,0.3-0.6,0.6c0,0.3,0.3,0.6,0.6,0.6C26.9,41.4,27.8,41.4,27.8,41.4"/>
		<path class="st8" d="M40.7,39.9c-1.2,0.4-2.1,0.6-3.2,0.6v-2.2c0.9-0.2,1.5-0.4,2.3-0.8L40.7,39.9z"/>
		<path class="st12" d="M37.4,37.5c0.3,0,0.6,0.3,0.6,0.6c0,0.8,0,2,0,2.5c0,0.4-0.3,0.6-0.6,0.7c-0.1,0-0.2,0-0.3,0
			c-0.4,0-0.7-0.3-0.7-0.7c0-0.4-0.2-0.7-0.6-0.7h-0.4v-2.4H37.4z"/>
		<path class="st12" d="M35,38.2h2c0.2,0,0.4-0.2,0.4-0.4c0-0.2-0.2-0.4-0.4-0.4h-2c-0.2,0-0.4,0.2-0.4,0.4
			C34.6,38.1,34.8,38.2,35,38.2"/>
		<path class="st12" d="M34.8,39h2c0.2,0,0.4-0.2,0.4-0.4c0-0.2-0.2-0.4-0.4-0.4h-2c-0.2,0-0.4,0.2-0.4,0.4
			C34.4,38.8,34.6,39,34.8,39"/>
		<path class="st12" d="M34.9,39.7h2c0.2,0,0.4-0.2,0.4-0.4c0-0.2-0.2-0.4-0.4-0.4h-2c-0.2,0-0.4,0.2-0.4,0.4
			C34.6,39.5,34.7,39.7,34.9,39.7"/>
		<path class="st12" d="M35.4,40.4h2c0.2,0,0.4-0.2,0.4-0.4c0-0.2-0.2-0.4-0.4-0.4h-2c-0.2,0-0.4,0.2-0.4,0.4
			C35,40.2,35.2,40.4,35.4,40.4"/>
	</g>
	<g>
		<path class="st13" d="M27.7,45c11.7,0,21.1-9.2,21.1-20.4c0-11.3-9.5-20.4-21.1-20.4S6.5,13.3,6.5,24.6C6.5,35.8,16,45,27.7,45z"
			/>
	</g>
</g>
</svg>
